G04 #@! TF.FileFunction,Legend,Top*
%FSLAX46Y46*%
G04 Gerber Fmt 4.6, Leading zero omitted, Abs format (unit mm)*
G04 Created by KiCad (PCBNEW 4.0.2-stable) date 2016-04-16 6:31:27 PM*
%MOMM*%
G01*
G04 APERTURE LIST*
%ADD10C,0.100000*%
%ADD11C,0.300000*%
%ADD12C,0.150000*%
%ADD13C,2.286000*%
%ADD14C,3.987800*%
%ADD15C,1.701800*%
%ADD16C,2.540000*%
G04 APERTURE END LIST*
D10*
D11*
X143214286Y-111035714D02*
X143142857Y-111107143D01*
X142928571Y-111178571D01*
X142785714Y-111178571D01*
X142571429Y-111107143D01*
X142428571Y-110964286D01*
X142357143Y-110821429D01*
X142285714Y-110535714D01*
X142285714Y-110321429D01*
X142357143Y-110035714D01*
X142428571Y-109892857D01*
X142571429Y-109750000D01*
X142785714Y-109678571D01*
X142928571Y-109678571D01*
X143142857Y-109750000D01*
X143214286Y-109821429D01*
X143857143Y-111178571D02*
X143857143Y-109678571D01*
X143857143Y-110392857D02*
X144714286Y-110392857D01*
X144714286Y-111178571D02*
X144714286Y-109678571D01*
X145428572Y-110392857D02*
X145928572Y-110392857D01*
X146142858Y-111178571D02*
X145428572Y-111178571D01*
X145428572Y-109678571D01*
X146142858Y-109678571D01*
X147642858Y-111178571D02*
X147142858Y-110464286D01*
X146785715Y-111178571D02*
X146785715Y-109678571D01*
X147357143Y-109678571D01*
X147500001Y-109750000D01*
X147571429Y-109821429D01*
X147642858Y-109964286D01*
X147642858Y-110178571D01*
X147571429Y-110321429D01*
X147500001Y-110392857D01*
X147357143Y-110464286D01*
X146785715Y-110464286D01*
X149142858Y-111178571D02*
X148642858Y-110464286D01*
X148285715Y-111178571D02*
X148285715Y-109678571D01*
X148857143Y-109678571D01*
X149000001Y-109750000D01*
X149071429Y-109821429D01*
X149142858Y-109964286D01*
X149142858Y-110178571D01*
X149071429Y-110321429D01*
X149000001Y-110392857D01*
X148857143Y-110464286D01*
X148285715Y-110464286D01*
X150071429Y-110464286D02*
X150071429Y-111178571D01*
X149571429Y-109678571D02*
X150071429Y-110464286D01*
X150571429Y-109678571D01*
X152214286Y-111178571D02*
X152214286Y-109678571D01*
X152714286Y-110750000D01*
X153214286Y-109678571D01*
X153214286Y-111178571D01*
X153785715Y-109678571D02*
X154785715Y-111178571D01*
X154785715Y-109678571D02*
X153785715Y-111178571D01*
X144250001Y-107678571D02*
X145107144Y-107678571D01*
X144678573Y-109178571D02*
X144678573Y-107678571D01*
X146464287Y-109178571D02*
X145964287Y-108464286D01*
X145607144Y-109178571D02*
X145607144Y-107678571D01*
X146178572Y-107678571D01*
X146321430Y-107750000D01*
X146392858Y-107821429D01*
X146464287Y-107964286D01*
X146464287Y-108178571D01*
X146392858Y-108321429D01*
X146321430Y-108392857D01*
X146178572Y-108464286D01*
X145607144Y-108464286D01*
X147107144Y-108607143D02*
X148250001Y-108607143D01*
X149178573Y-108321429D02*
X149035715Y-108250000D01*
X148964287Y-108178571D01*
X148892858Y-108035714D01*
X148892858Y-107964286D01*
X148964287Y-107821429D01*
X149035715Y-107750000D01*
X149178573Y-107678571D01*
X149464287Y-107678571D01*
X149607144Y-107750000D01*
X149678573Y-107821429D01*
X149750001Y-107964286D01*
X149750001Y-108035714D01*
X149678573Y-108178571D01*
X149607144Y-108250000D01*
X149464287Y-108321429D01*
X149178573Y-108321429D01*
X149035715Y-108392857D01*
X148964287Y-108464286D01*
X148892858Y-108607143D01*
X148892858Y-108892857D01*
X148964287Y-109035714D01*
X149035715Y-109107143D01*
X149178573Y-109178571D01*
X149464287Y-109178571D01*
X149607144Y-109107143D01*
X149678573Y-109035714D01*
X149750001Y-108892857D01*
X149750001Y-108607143D01*
X149678573Y-108464286D01*
X149607144Y-108392857D01*
X149464287Y-108321429D01*
X150678572Y-107678571D02*
X150821429Y-107678571D01*
X150964286Y-107750000D01*
X151035715Y-107821429D01*
X151107144Y-107964286D01*
X151178572Y-108250000D01*
X151178572Y-108607143D01*
X151107144Y-108892857D01*
X151035715Y-109035714D01*
X150964286Y-109107143D01*
X150821429Y-109178571D01*
X150678572Y-109178571D01*
X150535715Y-109107143D01*
X150464286Y-109035714D01*
X150392858Y-108892857D01*
X150321429Y-108607143D01*
X150321429Y-108250000D01*
X150392858Y-107964286D01*
X150464286Y-107821429D01*
X150535715Y-107750000D01*
X150678572Y-107678571D01*
X152035715Y-108321429D02*
X151892857Y-108250000D01*
X151821429Y-108178571D01*
X151750000Y-108035714D01*
X151750000Y-107964286D01*
X151821429Y-107821429D01*
X151892857Y-107750000D01*
X152035715Y-107678571D01*
X152321429Y-107678571D01*
X152464286Y-107750000D01*
X152535715Y-107821429D01*
X152607143Y-107964286D01*
X152607143Y-108035714D01*
X152535715Y-108178571D01*
X152464286Y-108250000D01*
X152321429Y-108321429D01*
X152035715Y-108321429D01*
X151892857Y-108392857D01*
X151821429Y-108464286D01*
X151750000Y-108607143D01*
X151750000Y-108892857D01*
X151821429Y-109035714D01*
X151892857Y-109107143D01*
X152035715Y-109178571D01*
X152321429Y-109178571D01*
X152464286Y-109107143D01*
X152535715Y-109035714D01*
X152607143Y-108892857D01*
X152607143Y-108607143D01*
X152535715Y-108464286D01*
X152464286Y-108392857D01*
X152321429Y-108321429D01*
D12*
X155486100Y-98018600D02*
X155486100Y-111988600D01*
X155486100Y-111988600D02*
X141516100Y-111988600D01*
X141516100Y-111988600D02*
X141516100Y-98018600D01*
X141516100Y-98018600D02*
X155486100Y-98018600D01*
%LPC*%
D13*
X142151100Y-107543600D03*
X154851100Y-107543600D03*
X142151100Y-102463600D03*
X154851100Y-102463600D03*
D14*
X148501100Y-105003600D03*
D15*
X153581100Y-105003600D03*
X143421100Y-105003600D03*
D16*
X144691100Y-102463600D03*
X151041100Y-99923600D03*
M02*
